<svg width="1035" height="314" viewBox="0 0 1035 314" fill="none" xmlns="http://www.w3.org/2000/svg">
<g clip-path="url(#clip0_2_2)">
<path d="M215.5 275.4H132.4L124.1 261.1H212.8H232.6L180 169.9H121.4H60.9H8.59998L32.1 210.7H37.3H97.9H142.6L150.2 222.8H90.9H39.1L91.6 313.7H98.8H210.9H263.1L241 275.4H215.5Z" fill="white"/>
<path d="M159 104.9L170.7 125.3L257.4 275.3H317.9L159 0L69.1 155.6H129.7L159 104.9Z" fill="white"/>
<path d="M0 275.3H52.9L26.5 229.5L0 275.3Z" fill="white"/>
<path d="M505.1 61.3H395.3L353 233.8L343 274.7H451.5C474 274.7 496.9 256.3 502.5 233.8L535.2 101.3C540.7 79.1 527.3 61.3 505.1 61.3ZM486 121.1L460.5 221.8C458.7 228.8 452.4 233.7 445.1 233.7H398.3L429.4 106.5H474.7C482.3 106.6 487.9 113.7 486 121.1Z" fill="white"/>
<path d="M667 61.2H562.3L509.6 274.7H554.8L575.6 190.3H635.1L614.3 274.7H659.5L701.3 105C706.8 82.7 689.9 61.2 667 61.2ZM586.7 145.2L596.3 106.4H637.5C646.8 106.4 653.6 115.1 651.4 124.1L646.2 145.1H586.7V145.2Z" fill="white"/>
<path d="M879.3 61.2H826.6H781.5H729.5L718.4 106.4H770.4L728.8 274.7H773.9L815.5 106.4H867.7L879.3 61.2Z" fill="white"/>
<path d="M999.7 61.2H895L842.3 274.7H887.5L908.3 190.3H967.8L947 274.7H992.2L1034 105C1039.5 82.7 1022.6 61.2 999.7 61.2ZM919.4 145.2L929 106.4H970.2C979.5 106.4 986.3 115.1 984.1 124.1L978.9 145.1H919.4V145.2Z" fill="white"/>
</g>
<defs>
<clipPath id="clip0_2_2">
<rect width="1035" height="313.7" fill="white"/>
</clipPath>
</defs>
</svg>
